<svg width="720" height="900" viewBox="0 0 720 900" fill="none" xmlns="http://www.w3.org/2000/svg" role="img" aria-label="Doctor portrait placeholder">
  <rect width="720" height="900" rx="56" fill="#0E5256"/>
  <path d="M0 700C70 630 145 588 238 588H720V900H0V700Z" fill="#2E7F84"/>
  <circle cx="360" cy="292" r="140" fill="#E7D1BC"/>
  <path d="M214 290C214 228 262 176 324 176H396C458 176 506 228 506 290V338C506 429 431 504 340 504C269 504 214 449 214 378V290Z" fill="#F2DCC8"/>
  <path d="M204 292C204 203 276 131 365 131C454 131 526 203 526 292V316H204V292Z" fill="#312725"/>
  <rect x="246" y="548" width="228" height="86" rx="32" fill="#F2DCC8"/>
  <path d="M120 840C120 718 218 620 340 620H380C502 620 600 718 600 840V900H120V840Z" fill="#ECEFF4"/>
  <path d="M286 635H434L398 900H322L286 635Z" fill="#D8DEE7"/>
  <rect x="145" y="120" width="430" height="70" rx="35" fill="#F5FCFC" fill-opacity="0.15"/>
  <text x="360" y="167" fill="#F5FCFC" font-family="Arial, sans-serif" font-size="32" font-weight="700" text-anchor="middle">Dr. Profile Placeholder</text>
</svg>
