<svg width="720" height="900" viewBox="0 0 720 900" fill="none" xmlns="http://www.w3.org/2000/svg" role="img" aria-label="Doctor portrait placeholder">
  <rect width="720" height="900" rx="56" fill="#1B3F53"/>
  <path d="M0 720C92 642 200 592 322 592H720V900H0V720Z" fill="#3A6982"/>
  <circle cx="360" cy="290" r="144" fill="#F0D9C3"/>
  <path d="M220 305C220 223 286 157 368 157C450 157 516 223 516 305V362C516 442 451 507 371 507C288 507 220 439 220 355V305Z" fill="#F7E3D1"/>
  <path d="M214 286C214 194 288 120 380 120C472 120 546 194 546 286V340H214V286Z" fill="#2F2625"/>
  <path d="M286 547H452V642C452 690 413 729 365 729C322 729 286 694 286 651V547Z" fill="#F7E3D1"/>
  <path d="M124 850C124 725 226 623 351 623H389C514 623 616 725 616 850V900H124V850Z" fill="#F5F6F8"/>
  <path d="M286 628H454L419 900H321L286 628Z" fill="#D8E0E8"/>
  <rect x="152" y="122" width="418" height="68" rx="34" fill="#EEF7FF" fill-opacity="0.18"/>
  <text x="361" y="167" fill="#EEF7FF" font-family="Arial, sans-serif" font-size="30" font-weight="700" text-anchor="middle">Replace With Doctor Photo</text>
</svg>
