<svg width="420" height="420" viewBox="0 0 420 420" fill="none" xmlns="http://www.w3.org/2000/svg" role="img" aria-label="NUFACE brand symbol">
  <rect width="420" height="420" rx="72" fill="#F4FAF9"/>
  <circle cx="210" cy="196" r="126" fill="#ffffff" stroke="#2B8183" stroke-width="12"/>
  <path d="M138 256C170 256 194 236 194 206C194 178 172 157 145 146C166 147 184 132 184 112C184 91 166 78 139 78C100 78 79 104 79 133H116C117 116 125 108 138 108C149 108 156 114 156 123C156 134 147 140 134 140H119V166H134C149 166 160 173 160 186C160 199 149 207 136 207C121 207 111 198 109 182H71C73 227 101 256 138 256Z" fill="#2B8183"/>
  <path d="M244 309C210 309 181 282 181 247V146C181 108 212 77 250 77C286 77 315 104 319 140H288C286 122 271 108 252 108C230 108 214 124 214 145V247C214 268 229 283 251 283C271 283 286 270 288 252H319C315 288 284 309 244 309Z" fill="#5A3732"/>
  <path d="M292 315C260 315 236 294 236 266C236 238 260 217 292 217C324 217 347 238 347 266C347 294 324 315 292 315ZM292 286C307 286 318 277 318 266C318 255 307 246 292 246C277 246 266 255 266 266C266 277 277 286 292 286Z" fill="#2B8183"/>
  <path d="M78 334C118 366 170 382 210 382C250 382 303 366 342 334" stroke="#5A3732" stroke-width="12" stroke-linecap="round"/>
</svg>
